<mxfile host="Electron" agent="Mozilla/5.0 (Windows NT 10.0; Win64; x64) AppleWebKit/537.36 (KHTML, like Gecko) draw.io/28.1.2 Chrome/138.0.7204.243 Electron/37.4.0 Safari/537.36" version="28.1.2">
  <diagram name="PÃ¡gina-1" id="096VDVX-A93TqUbLZP8m">
    <mxGraphModel dx="1042" dy="626" grid="1" gridSize="10" guides="1" tooltips="1" connect="1" arrows="1" fold="1" page="1" pageScale="1" pageWidth="583" pageHeight="827" math="0" shadow="0">
      <root>
        <mxCell id="0" />
        <mxCell id="1" parent="0" />
        <mxCell id="2dlkynZL-GznsFYVLI9a-4" style="edgeStyle=orthogonalEdgeStyle;rounded=0;orthogonalLoop=1;jettySize=auto;html=1;exitX=0.5;exitY=1;exitDx=0;exitDy=0;entryX=0.5;entryY=0;entryDx=0;entryDy=0;" edge="1" parent="1" source="2dlkynZL-GznsFYVLI9a-1" target="2dlkynZL-GznsFYVLI9a-3">
          <mxGeometry relative="1" as="geometry" />
        </mxCell>
        <mxCell id="2dlkynZL-GznsFYVLI9a-1" value="INICIO" style="rounded=1;whiteSpace=wrap;html=1;" vertex="1" parent="1">
          <mxGeometry x="218" y="17" width="120" height="60" as="geometry" />
        </mxCell>
        <mxCell id="2dlkynZL-GznsFYVLI9a-2" value="FIN" style="rounded=1;whiteSpace=wrap;html=1;" vertex="1" parent="1">
          <mxGeometry x="218" y="827" width="120" height="60" as="geometry" />
        </mxCell>
        <mxCell id="2dlkynZL-GznsFYVLI9a-5" style="edgeStyle=orthogonalEdgeStyle;rounded=0;orthogonalLoop=1;jettySize=auto;html=1;exitX=0.5;exitY=1;exitDx=0;exitDy=0;" edge="1" parent="1" source="2dlkynZL-GznsFYVLI9a-3">
          <mxGeometry relative="1" as="geometry">
            <mxPoint x="278" y="197" as="targetPoint" />
          </mxGeometry>
        </mxCell>
        <mxCell id="2dlkynZL-GznsFYVLI9a-10" style="edgeStyle=orthogonalEdgeStyle;rounded=0;orthogonalLoop=1;jettySize=auto;html=1;exitX=1;exitY=0.5;exitDx=0;exitDy=0;entryX=0.5;entryY=0;entryDx=0;entryDy=0;" edge="1" parent="1" source="2dlkynZL-GznsFYVLI9a-3" target="2dlkynZL-GznsFYVLI9a-13">
          <mxGeometry relative="1" as="geometry">
            <mxPoint x="458" y="387" as="targetPoint" />
            <Array as="points">
              <mxPoint x="468" y="137" />
              <mxPoint x="468" y="367" />
              <mxPoint x="278" y="367" />
            </Array>
          </mxGeometry>
        </mxCell>
        <mxCell id="2dlkynZL-GznsFYVLI9a-11" value="OPCION" style="edgeLabel;html=1;align=center;verticalAlign=middle;resizable=0;points=[];" vertex="1" connectable="0" parent="2dlkynZL-GznsFYVLI9a-10">
          <mxGeometry x="0.0341" y="-1" relative="1" as="geometry">
            <mxPoint x="1" y="-75" as="offset" />
          </mxGeometry>
        </mxCell>
        <mxCell id="2dlkynZL-GznsFYVLI9a-3" value="While&lt;br&gt;(True)" style="rhombus;whiteSpace=wrap;html=1;" vertex="1" parent="1">
          <mxGeometry x="238" y="97" width="80" height="80" as="geometry" />
        </mxCell>
        <mxCell id="2dlkynZL-GznsFYVLI9a-8" style="edgeStyle=orthogonalEdgeStyle;rounded=0;orthogonalLoop=1;jettySize=auto;html=1;exitX=0.5;exitY=1;exitDx=0;exitDy=0;entryX=0.5;entryY=0;entryDx=0;entryDy=0;" edge="1" parent="1" source="2dlkynZL-GznsFYVLI9a-6" target="2dlkynZL-GznsFYVLI9a-7">
          <mxGeometry relative="1" as="geometry" />
        </mxCell>
        <mxCell id="2dlkynZL-GznsFYVLI9a-6" value="MENU PRINCIPAL" style="rounded=1;whiteSpace=wrap;html=1;" vertex="1" parent="1">
          <mxGeometry x="218" y="197" width="120" height="60" as="geometry" />
        </mxCell>
        <mxCell id="2dlkynZL-GznsFYVLI9a-9" style="edgeStyle=orthogonalEdgeStyle;rounded=0;orthogonalLoop=1;jettySize=auto;html=1;exitX=0.5;exitY=1;exitDx=0;exitDy=0;entryX=0;entryY=0.5;entryDx=0;entryDy=0;" edge="1" parent="1" source="2dlkynZL-GznsFYVLI9a-7" target="2dlkynZL-GznsFYVLI9a-3">
          <mxGeometry relative="1" as="geometry">
            <Array as="points">
              <mxPoint x="278" y="357" />
              <mxPoint x="168" y="357" />
              <mxPoint x="168" y="137" />
            </Array>
          </mxGeometry>
        </mxCell>
        <mxCell id="2dlkynZL-GznsFYVLI9a-7" value="SELECCIONAR UNA OPCION" style="rounded=1;whiteSpace=wrap;html=1;" vertex="1" parent="1">
          <mxGeometry x="218" y="277" width="120" height="60" as="geometry" />
        </mxCell>
        <mxCell id="2dlkynZL-GznsFYVLI9a-17" style="edgeStyle=orthogonalEdgeStyle;rounded=0;orthogonalLoop=1;jettySize=auto;html=1;exitX=0.5;exitY=1;exitDx=0;exitDy=0;entryX=0.5;entryY=0;entryDx=0;entryDy=0;" edge="1" parent="1" source="2dlkynZL-GznsFYVLI9a-13" target="2dlkynZL-GznsFYVLI9a-14">
          <mxGeometry relative="1" as="geometry" />
        </mxCell>
        <mxCell id="2dlkynZL-GznsFYVLI9a-22" style="edgeStyle=orthogonalEdgeStyle;rounded=0;orthogonalLoop=1;jettySize=auto;html=1;exitX=1;exitY=0.5;exitDx=0;exitDy=0;" edge="1" parent="1" source="2dlkynZL-GznsFYVLI9a-13">
          <mxGeometry relative="1" as="geometry">
            <mxPoint x="498" y="507" as="targetPoint" />
          </mxGeometry>
        </mxCell>
        <mxCell id="2dlkynZL-GznsFYVLI9a-23" value="FALSE" style="edgeLabel;html=1;align=center;verticalAlign=middle;resizable=0;points=[];" vertex="1" connectable="0" parent="2dlkynZL-GznsFYVLI9a-22">
          <mxGeometry x="-0.4012" y="-2" relative="1" as="geometry">
            <mxPoint as="offset" />
          </mxGeometry>
        </mxCell>
        <mxCell id="2dlkynZL-GznsFYVLI9a-13" value="OPCION=2" style="rhombus;whiteSpace=wrap;html=1;" vertex="1" parent="1">
          <mxGeometry x="238" y="397" width="80" height="80" as="geometry" />
        </mxCell>
        <mxCell id="2dlkynZL-GznsFYVLI9a-18" style="edgeStyle=orthogonalEdgeStyle;rounded=0;orthogonalLoop=1;jettySize=auto;html=1;exitX=0.5;exitY=1;exitDx=0;exitDy=0;entryX=0.5;entryY=0;entryDx=0;entryDy=0;" edge="1" parent="1" source="2dlkynZL-GznsFYVLI9a-14" target="2dlkynZL-GznsFYVLI9a-15">
          <mxGeometry relative="1" as="geometry" />
        </mxCell>
        <mxCell id="2dlkynZL-GznsFYVLI9a-14" value="NOMBRE-PRODUCTO" style="rounded=1;whiteSpace=wrap;html=1;" vertex="1" parent="1">
          <mxGeometry x="218" y="497" width="120" height="60" as="geometry" />
        </mxCell>
        <mxCell id="2dlkynZL-GznsFYVLI9a-19" style="edgeStyle=orthogonalEdgeStyle;rounded=0;orthogonalLoop=1;jettySize=auto;html=1;exitX=0.5;exitY=1;exitDx=0;exitDy=0;entryX=0.5;entryY=0;entryDx=0;entryDy=0;" edge="1" parent="1" source="2dlkynZL-GznsFYVLI9a-15" target="2dlkynZL-GznsFYVLI9a-16">
          <mxGeometry relative="1" as="geometry" />
        </mxCell>
        <mxCell id="2dlkynZL-GznsFYVLI9a-15" value="PRECIO" style="rounded=1;whiteSpace=wrap;html=1;" vertex="1" parent="1">
          <mxGeometry x="218" y="577" width="120" height="60" as="geometry" />
        </mxCell>
        <mxCell id="2dlkynZL-GznsFYVLI9a-27" style="edgeStyle=orthogonalEdgeStyle;rounded=0;orthogonalLoop=1;jettySize=auto;html=1;exitX=0.5;exitY=1;exitDx=0;exitDy=0;entryX=0.5;entryY=0;entryDx=0;entryDy=0;" edge="1" parent="1" source="2dlkynZL-GznsFYVLI9a-16" target="2dlkynZL-GznsFYVLI9a-26">
          <mxGeometry relative="1" as="geometry" />
        </mxCell>
        <mxCell id="2dlkynZL-GznsFYVLI9a-16" value="ID" style="rounded=1;whiteSpace=wrap;html=1;" vertex="1" parent="1">
          <mxGeometry x="218" y="657" width="120" height="60" as="geometry" />
        </mxCell>
        <mxCell id="2dlkynZL-GznsFYVLI9a-24" value="EJECUTAR OTRA ACCION" style="rounded=1;whiteSpace=wrap;html=1;" vertex="1" parent="1">
          <mxGeometry x="438" y="507" width="120" height="60" as="geometry" />
        </mxCell>
        <mxCell id="2dlkynZL-GznsFYVLI9a-28" style="edgeStyle=orthogonalEdgeStyle;rounded=0;orthogonalLoop=1;jettySize=auto;html=1;exitX=0.5;exitY=1;exitDx=0;exitDy=0;entryX=0.5;entryY=0;entryDx=0;entryDy=0;" edge="1" parent="1" source="2dlkynZL-GznsFYVLI9a-26">
          <mxGeometry relative="1" as="geometry">
            <mxPoint x="278" y="827" as="targetPoint" />
          </mxGeometry>
        </mxCell>
        <mxCell id="2dlkynZL-GznsFYVLI9a-26" value="MENSAJE-CONFIRMACION" style="rounded=1;whiteSpace=wrap;html=1;" vertex="1" parent="1">
          <mxGeometry x="218" y="737" width="120" height="60" as="geometry" />
        </mxCell>
      </root>
    </mxGraphModel>
  </diagram>
</mxfile>
